<svg width="1135" height="173" fill="none" xmlns="http://www.w3.org/2000/svg">
  <path d="M139.6 64.4l-5 6.8c-2 .8-3.933 1.2-5.8 1.2-1.067 0-2.267-.2-3.6-.6a17.5 17.5 0 01-3.4-2c-1.067-.933-2-2.067-2.8-3.4-.667-1.333-1-2.867-1-4.6 0-2 .2-4.067.6-6.2.4-2.133 1.133-4.467 2.2-7 1.2-2.533 2.8-5.2 4.8-8 2.133-2.8 4.867-5.867 8.2-9.2h1c.4-.133.733-.2 1-.2 2.267 0 3.533 1 3.8 3-.133.533-.533 1.333-1.2 2.4a20.99 20.99 0 01-2 3.2 58.544 58.544 0 01-2 3c-.533.8-.867 1.267-1 1.4-1.467 2.667-2.467 5.667-3 9h1c.8 0 1.6.133 2.4.4.933.133 1.8.6 2.6 1.4.8.8 1.467 1.933 2 3.4.667 1.467 1.067 3.467 1.2 6zm-28 0l-5 6.8c-2 .8-3.933 1.2-5.8 1.2-1.067 0-2.267-.2-3.6-.6-1.2-.533-2.333-1.2-3.4-2-1.067-.933-2-2.067-2.8-3.4-.667-1.333-1-2.867-1-4.6 0-2 .2-4.067.6-6.2.4-2.133 1.133-4.467 2.2-7 1.2-2.533 2.8-5.2 4.8-8 2.133-2.8 4.867-5.867 8.2-9.2h1c.4-.133.733-.2 1-.2 2.267 0 3.533 1 3.8 3-.133.533-.533 1.333-1.2 2.4a20.99 20.99 0 01-2 3.2 58.544 58.544 0 01-2 3c-.533.8-.867 1.267-1 1.4-1.467 2.667-2.467 5.667-3 9h1c.8 0 1.6.133 2.4.4.933.133 1.8.6 2.6 1.4.8.8 1.467 1.933 2 3.4.667 1.467 1.067 3.467 1.2 6zM994.463 108.6l4.999-6.8c1.998-.8 3.938-1.2 5.798-1.2 1.07 0 2.27.2 3.6.6 1.2.533 2.34 1.2 3.4 2 1.07.933 2 2.067 2.8 3.4.67 1.333 1 2.867 1 4.6 0 2-.2 4.067-.6 6.2-.4 2.133-1.13 4.467-2.2 7-1.2 2.533-2.8 5.2-4.8 8-2.13 2.8-4.86 5.867-8.2 9.2h-.998c-.4.133-.733.2-1 .2-2.266 0-3.533-1-3.799-3 .133-.533.533-1.333 1.199-2.4a21.07 21.07 0 012-3.2 58.94 58.94 0 012-3c.538-.8.868-1.267.998-1.4 1.47-2.667 2.47-5.667 3-9h-1c-.8 0-1.6-.133-2.4-.4-.931-.133-1.798-.6-2.598-1.4-.8-.8-1.466-1.933-2-3.4-.666-1.467-1.066-3.467-1.199-6zm27.997 0l5-6.8c2-.8 3.94-1.2 5.8-1.2 1.07 0 2.27.2 3.6.6 1.2.533 2.34 1.2 3.4 2 1.07.933 2 2.067 2.8 3.4.67 1.333 1 2.867 1 4.6 0 2-.2 4.067-.6 6.2-.4 2.133-1.13 4.467-2.2 7-1.2 2.533-2.8 5.2-4.8 8-2.13 2.8-4.86 5.867-8.2 9.2h-1c-.4.133-.73.2-1 .2-2.26 0-3.53-1-3.8-3 .14-.533.54-1.333 1.2-2.4.54-1.067 1.2-2.133 2-3.2a65.62 65.62 0 012-3c.54-.8.87-1.267 1-1.4 1.47-2.667 2.47-5.667 3-9h-1c-.8 0-1.6-.133-2.4-.4-.93-.133-1.8-.6-2.6-1.4-.8-.8-1.46-1.933-2-3.4-.66-1.467-1.06-3.467-1.2-6z" fill="#DBDBDB"/>
</svg>
